<!--?xml version="1.0" standalone="no"?-->              <svg id="sw-js-blob-svg" viewBox="0 0 100 100" xmlns="http://www.w3.org/2000/svg">                    <defs>                         <linearGradient id="sw-gradient" x1="0" x2="1" y1="1" y2="0">                            <stop id="stop1" stop-color="rgba(86.631, 203.459, 63.186, 1)" offset="0%"></stop>                            <stop id="stop2" stop-color="rgba(251, 168, 31, 1)" offset="100%"></stop>                        </linearGradient>                    </defs>                <path fill="url(#sw-gradient)" d="M19.8,-23C26.3,-18.1,32.7,-12.5,36.5,-4.5C40.2,3.5,41.3,14,36.7,20.4C32,26.8,21.8,29.2,12.1,32.4C2.3,35.7,-6.8,39.8,-14.5,37.9C-22.1,35.9,-28.3,27.9,-33,19.3C-37.7,10.7,-40.9,1.5,-40,-7.7C-39.2,-16.8,-34.3,-25.9,-26.9,-30.7C-19.6,-35.5,-9.8,-36,-1.6,-34.1C6.6,-32.2,13.3,-27.9,19.8,-23Z" width="100%" height="100%" transform="translate(50 50)" stroke-width="0" style="transition: all 0.3s ease 0s;"></path>              </svg>